<svg width="1139" height="256" viewBox="0 0 1139 256" fill="none" xmlns="http://www.w3.org/2000/svg">
<path fill-rule="evenodd" clip-rule="evenodd" d="M92.375 100.545V122.278H78.0312V157.16C78.0312 158.319 78.2305 159.297 78.6289 160.094C79.0273 160.854 79.6431 161.434 80.4762 161.832C81.3093 162.195 82.3778 162.376 83.6818 162.376C84.5874 162.376 85.6378 162.267 86.8331 162.05C88.0646 161.832 88.9702 161.651 89.5497 161.506L93.8963 182.587C92.5561 182.986 90.6364 183.475 88.1371 184.054C85.674 184.634 82.7401 185.014 79.3352 185.195C72.4531 185.558 66.6758 184.851 62.0032 183.076C57.3306 181.265 53.8171 178.422 51.4627 174.546C49.1083 170.67 47.9673 165.817 48.0398 159.985V122.278H37.3906V100.545H48.0398V80.5511H78.0312V100.545H92.375ZM110.418 180.142C103.97 176.52 99.0259 171.485 95.5849 165.038C92.1438 158.554 90.4233 151.038 90.4233 142.49C90.4233 133.942 92.1438 126.444 95.5849 119.996C99.0259 113.513 103.97 108.478 110.418 104.892C116.865 101.27 124.616 99.4588 133.672 99.4588C142.727 99.4588 150.479 101.27 156.926 104.892C163.374 108.478 168.318 113.513 171.759 119.996C175.2 126.444 176.92 133.942 176.92 142.49C176.92 151.038 175.2 158.554 171.759 165.038C168.318 171.485 163.374 176.52 156.926 180.142C150.479 183.728 142.727 185.521 133.672 185.521C124.616 185.521 116.865 183.728 110.418 180.142ZM133.889 163.354C136.425 163.354 138.616 162.502 140.463 160.8C142.311 159.098 143.741 156.671 144.756 153.52C145.77 150.368 146.277 146.619 146.277 142.273C146.277 137.89 145.77 134.141 144.756 131.026C143.741 127.875 142.311 125.448 140.463 123.745C138.616 122.043 136.425 121.192 133.889 121.192C131.209 121.192 128.909 122.043 126.989 123.745C125.069 125.448 123.602 127.875 122.588 131.026C121.574 134.141 121.067 137.89 121.067 142.273C121.067 146.619 121.574 150.368 122.588 153.52C123.602 156.671 125.069 159.098 126.989 160.8C128.909 162.502 131.209 163.354 133.889 163.354ZM171.261 100.545H201.252L210.814 151.401H211.466L222.116 100.545H251.238L262.322 150.966H262.974L272.101 100.545H302.093L281.229 184H248.847L237.111 139.23H236.242L224.506 184H192.124L171.261 100.545ZM324.224 185.304C318.899 185.304 314.191 184.435 310.098 182.696C306.041 180.921 302.853 178.241 300.535 174.655C298.217 171.069 297.058 166.505 297.058 160.963C297.058 156.399 297.837 152.505 299.394 149.282C300.952 146.022 303.125 143.359 305.914 141.295C308.703 139.23 311.945 137.654 315.639 136.568C319.37 135.481 323.391 134.775 327.701 134.449C332.374 134.087 336.123 133.652 338.948 133.145C341.81 132.602 343.874 131.859 345.142 130.917C346.41 129.939 347.044 128.653 347.044 127.06V126.842C347.044 124.669 346.211 123.003 344.544 121.844C342.878 120.685 340.741 120.105 338.133 120.105C335.272 120.105 332.935 120.739 331.124 122.007C329.349 123.238 328.281 125.14 327.919 127.712H300.318C300.68 122.641 302.292 117.968 305.153 113.694C308.051 109.384 312.271 105.942 317.813 103.371C323.355 100.763 330.273 99.4588 338.568 99.4588C344.544 99.4588 349.905 100.165 354.65 101.578C359.395 102.954 363.434 104.892 366.766 107.391C370.099 109.854 372.634 112.752 374.373 116.085C376.148 119.381 377.035 122.967 377.035 126.842V184H349V172.264H348.348C346.681 175.379 344.653 177.897 342.262 179.816C339.908 181.736 337.209 183.131 334.167 184C331.16 184.869 327.846 185.304 324.224 185.304ZM334.004 166.396C336.286 166.396 338.423 165.925 340.415 164.984C342.443 164.042 344.092 162.684 345.359 160.909C346.627 159.134 347.261 156.979 347.261 154.443V147.489C346.464 147.815 345.613 148.123 344.707 148.412C343.838 148.702 342.896 148.974 341.882 149.227C340.904 149.481 339.854 149.716 338.731 149.934C337.644 150.151 336.503 150.35 335.308 150.531C332.99 150.893 331.088 151.491 329.603 152.324C328.154 153.121 327.067 154.117 326.343 155.312C325.655 156.472 325.311 157.776 325.311 159.224C325.311 161.543 326.126 163.317 327.756 164.549C329.386 165.781 331.468 166.396 334.004 166.396ZM381.114 100.545H410.236V116.411H411.106C412.627 110.543 415.036 106.25 418.332 103.534C421.664 100.817 425.558 99.4588 430.013 99.4588C431.317 99.4588 432.603 99.5675 433.871 99.7848C435.175 99.9659 436.425 100.238 437.62 100.6V112.422C440.195 108.753 443.207 105.9 446.657 103.86C451.656 100.926 456.908 99.4588 462.413 99.4588C466.543 99.4588 470.165 100.183 473.28 101.632C476.395 103.045 479.003 104.946 481.104 107.337C483.205 109.691 484.798 112.281 485.885 115.107H486.32V72.7273H516.311V184H486.537V170.308H485.885C484.726 173.134 483.06 175.669 480.886 177.915C478.749 180.124 476.141 181.881 473.062 183.185C470.02 184.453 466.543 185.087 462.631 185.087C456.69 185.087 451.221 183.529 446.222 180.414C441.26 177.299 437.276 172.572 434.269 166.233C431.299 159.895 429.814 151.908 429.814 142.273C429.814 135.721 430.473 129.967 431.792 125.01C429.764 124.783 428.012 124.669 426.536 124.669C423.602 124.669 420.958 125.339 418.604 126.679C416.285 127.983 414.456 129.831 413.116 132.221C411.776 134.576 411.106 137.347 411.106 140.534V184H381.114V100.545ZM473.714 162.05C476.467 162.05 478.822 161.253 480.778 159.659C482.77 158.029 484.291 155.747 485.342 152.813C486.428 149.843 486.972 146.33 486.972 142.273C486.972 138.143 486.428 134.612 485.342 131.678C484.291 128.708 482.77 126.444 480.778 124.886C478.822 123.293 476.467 122.496 473.714 122.496C470.962 122.496 468.607 123.293 466.651 124.886C464.732 126.444 463.246 128.708 462.196 131.678C461.182 134.612 460.675 138.143 460.675 142.273C460.675 146.402 461.182 149.952 462.196 152.922C463.246 155.856 464.732 158.12 466.651 159.713C468.607 161.271 470.962 162.05 473.714 162.05ZM597.067 127.712H569.466C569.321 126.009 568.723 124.542 567.673 123.311C566.623 122.079 565.264 121.137 563.598 120.485C561.968 119.797 560.157 119.453 558.165 119.453C555.593 119.453 553.384 119.924 551.536 120.866C549.689 121.808 548.783 123.148 548.82 124.886C548.783 126.118 549.309 127.259 550.395 128.309C551.518 129.36 553.673 130.175 556.861 130.754L573.813 133.797C582.361 135.354 588.718 137.98 592.883 141.675C597.085 145.333 599.204 150.241 599.24 156.399C599.204 162.339 597.429 167.501 593.916 171.884C590.438 176.23 585.675 179.599 579.626 181.99C573.613 184.344 566.749 185.521 559.034 185.521C546.284 185.521 536.305 182.913 529.097 177.697C521.925 172.482 517.923 165.599 517.09 157.051H546.864C547.262 159.695 548.566 161.742 550.776 163.191C553.021 164.603 555.847 165.31 559.251 165.31C562.004 165.31 564.268 164.839 566.043 163.897C567.854 162.955 568.778 161.615 568.814 159.876C568.778 158.283 567.981 157.015 566.423 156.073C564.902 155.131 562.511 154.371 559.251 153.791L544.473 151.183C535.961 149.698 529.586 146.873 525.348 142.707C521.11 138.542 519.009 133.181 519.046 126.625C519.009 120.83 520.531 115.922 523.609 111.901C526.724 107.844 531.162 104.765 536.921 102.664C542.716 100.527 549.58 99.4588 557.513 99.4588C569.575 99.4588 579.083 101.958 586.037 106.957C593.028 111.955 596.705 118.874 597.067 127.712ZM620.71 100.545H650.701V184H620.71V100.545ZM635.706 91.8523C631.649 91.8523 628.172 90.5121 625.274 87.8317C622.376 85.1513 620.927 81.9276 620.927 78.1605C620.927 74.3935 622.376 71.1697 625.274 68.4893C628.172 65.8089 631.649 64.4688 635.706 64.4688C639.799 64.4688 643.276 65.8089 646.137 68.4893C649.035 71.1697 650.484 74.3935 650.484 78.1605C650.484 81.9276 649.035 85.1513 646.137 87.8317C643.276 90.5121 639.799 91.8523 635.706 91.8523ZM685.723 184V160.335L690.215 154.595L707.238 184H738.266H741.577H768.258V137.057C768.294 134.304 768.801 131.95 769.779 129.994C770.793 128.001 772.206 126.48 774.017 125.43C775.864 124.343 778.002 123.8 780.428 123.8C784.268 123.8 787.22 124.977 789.285 127.331C791.385 129.686 792.418 132.928 792.382 137.057V184H822.373V130.754C822.409 124.669 821.214 119.272 818.787 114.563C816.396 109.854 813.01 106.16 808.627 103.479C804.28 100.799 799.155 99.4588 793.251 99.4588C787.093 99.4588 781.823 100.962 777.44 103.968C773.057 106.939 769.924 111.086 768.041 116.411H767.171V72.7273H738.266V100.545H707.021L686.809 128.581H685.723V72.7273H655.731V184H685.723ZM738.266 178.695L712.322 137.118L738.266 103.69V178.695ZM856.919 72.7273V183.899C856.312 183.145 855.722 182.408 855.18 181.73L854.591 180.995C853.877 180.105 853.059 179.083 852.773 178.722C852.64 178.557 852.396 178.251 852.1 177.88C851.756 177.449 851.343 176.932 850.959 176.453C850.25 175.562 849.65 174.808 849.627 174.78C849.605 174.738 849.668 174.634 849.818 174.461C849.941 174.32 850.155 174.048 850.291 173.866C850.423 173.678 850.623 173.373 850.727 173.195C850.836 173.017 851.041 172.614 851.186 172.305C851.332 171.995 851.55 171.428 851.677 171.039C851.8 170.655 851.955 170.092 852.018 169.797C852.082 169.502 852.155 169.08 852.182 168.859C852.205 168.639 852.227 167.889 852.227 167.195C852.227 166.3 852.205 165.784 852.155 165.438C852.118 165.166 852.032 164.725 851.968 164.453C851.905 164.181 851.791 163.759 851.718 163.516C851.641 163.272 851.486 162.85 851.377 162.578C851.268 162.306 851.082 161.908 850.968 161.688C850.855 161.467 850.659 161.13 850.532 160.938C850.405 160.745 850.177 160.427 850.018 160.234C849.864 160.042 849.605 159.756 849.445 159.597C849.286 159.438 848.982 159.161 848.759 158.978C848.536 158.786 848.355 158.594 848.341 158.538C848.327 158.477 848.259 157.848 848.186 157.141L848.131 156.609C848.079 156.099 848.033 155.657 848.023 155.523L847.991 155.195C848.332 154.914 848.523 154.717 848.636 154.567C848.75 154.422 848.9 154.169 848.973 154C849.045 153.831 849.123 153.559 849.15 153.391C849.177 153.18 849.177 152.992 849.141 152.781C849.114 152.613 849.018 152.317 848.927 152.125C848.805 151.858 848.682 151.689 848.418 151.422C848.168 151.169 847.927 150.991 847.582 150.789C847.186 150.564 847.091 150.489 847.091 150.405C847.091 150.344 847.141 150.006 847.205 149.655C847.238 149.469 847.273 149.285 847.303 149.139C847.33 149.006 847.353 148.905 847.364 148.867C847.391 148.783 847.555 148.6 847.755 148.422C847.945 148.253 848.264 147.916 848.464 147.672C848.664 147.428 848.9 147.109 848.991 146.969C849.082 146.828 849.282 146.458 849.432 146.148C849.586 145.839 849.795 145.323 849.895 145C850 144.677 850.127 144.203 850.177 143.945C850.227 143.688 850.291 143.289 850.318 143.055C850.341 142.82 850.364 142.286 850.364 141.859C850.364 141.433 850.332 140.866 850.295 140.594C850.259 140.322 850.164 139.839 850.086 139.516C850.009 139.192 849.877 138.752 849.795 138.531C849.714 138.311 849.55 137.931 849.432 137.688C849.314 137.444 849.109 137.073 848.977 136.867C848.845 136.661 848.605 136.342 848.445 136.164C848.291 135.981 847.995 135.681 847.795 135.494C847.595 135.306 847.264 135.034 847.055 134.894C846.85 134.753 846.682 134.608 846.682 134.57C846.682 134.533 846.618 134.045 846.545 133.492L846.409 132.484C846.773 132.067 846.932 131.828 846.995 131.688C847.091 131.477 847.109 131.364 847.109 131.055C847.109 130.783 847.082 130.623 847.014 130.469C846.964 130.352 846.777 130.098 846.6 129.906L846.277 129.555C846.136 127.741 846.082 126.991 846.068 126.719L846.036 126.227C846.723 125.645 847.05 125.317 847.214 125.125C847.373 124.933 847.595 124.638 847.7 124.469C847.809 124.3 847.991 123.977 848.1 123.742C848.214 123.508 848.373 123.119 848.45 122.875C848.532 122.631 848.641 122.219 848.695 121.961C848.777 121.567 848.791 121.333 848.795 120.508C848.795 119.739 848.777 119.42 848.709 119.055C848.664 118.797 848.55 118.342 848.455 118.047C848.364 117.752 848.209 117.348 848.114 117.156C848.023 116.964 847.832 116.627 847.691 116.406C847.55 116.186 847.227 115.787 846.968 115.516L846.5 115.023L845.477 110.931C846.109 110.327 846.245 110.148 846.364 109.914C846.509 109.619 846.523 109.558 846.523 109.192C846.523 108.855 846.505 108.747 846.405 108.531C846.341 108.391 846.195 108.17 846.086 108.044C845.977 107.917 845.723 107.706 845.523 107.57C845.323 107.43 845.036 107.266 844.886 107.195C844.736 107.13 844.577 107.036 844.532 106.994C844.491 106.952 844.441 106.82 844.427 106.703C844.414 106.586 844.3 105.808 844.177 104.969L844.035 103.992C844.004 103.78 843.97 103.548 843.935 103.303C843.957 103.296 843.979 103.289 844 103.281C844.314 103.178 844.741 102.995 844.955 102.873C845.168 102.756 845.482 102.559 845.659 102.433C845.836 102.311 846.15 102.044 846.359 101.842C846.568 101.641 846.9 101.256 847.1 100.984C847.305 100.703 847.564 100.272 847.7 99.9766C847.836 99.6906 847.995 99.3016 848.059 99.1094C848.118 98.9172 848.209 98.5797 848.255 98.3594C848.323 98.0453 848.341 97.7641 848.341 97.0469C848.341 96.3297 848.323 96.0484 848.255 95.7344C848.209 95.5141 848.118 95.1766 848.059 94.9844C847.995 94.7922 847.836 94.4031 847.7 94.1172C847.564 93.8219 847.305 93.3906 847.1 93.1094C846.9 92.8375 846.577 92.4625 846.382 92.2703C846.186 92.0781 845.882 91.8203 845.705 91.6938C845.527 91.5672 845.223 91.3703 845.023 91.2578C844.823 91.1453 844.495 90.9906 844.295 90.9109C844.095 90.8359 843.777 90.7281 843.591 90.6766C843.405 90.625 843.091 90.5594 842.895 90.5359C842.705 90.5078 842.273 90.4844 841.945 90.4891H841.941C841.614 90.4937 841.177 90.5219 840.977 90.5547C840.777 90.5875 840.473 90.6578 840.295 90.7094C840.118 90.7609 839.836 90.8594 839.659 90.925C839.482 90.9953 839.177 91.1453 838.977 91.2578C838.777 91.3703 838.468 91.5672 838.295 91.6938C838.118 91.8203 837.814 92.0781 837.618 92.2703C837.423 92.4625 837.1 92.8375 836.9 93.1094C836.7 93.3859 836.436 93.8266 836.295 94.1172C836.164 94.4031 836 94.7922 835.941 94.9844C835.877 95.1766 835.791 95.5141 835.745 95.7344C835.677 96.0484 835.659 96.3297 835.659 97.0469C835.659 97.7641 835.677 98.0453 835.745 98.3594C835.791 98.5797 835.877 98.9172 835.941 99.1094C836 99.3016 836.159 99.6906 836.295 99.9766C836.432 100.267 836.7 100.708 836.9 100.984C837.1 101.256 837.432 101.641 837.641 101.842C837.85 102.044 838.164 102.311 838.341 102.433C838.514 102.559 838.832 102.756 839.045 102.873C839.259 102.995 839.686 103.178 840 103.281C840.016 103.287 840.033 103.292 840.05 103.298L839.905 104.289L839.85 104.662C839.674 105.861 839.531 106.837 839.523 106.905C839.505 107.013 839.455 107.05 839.168 107.158C838.991 107.228 838.7 107.383 838.523 107.5C838.35 107.622 838.091 107.842 837.955 107.997C837.818 108.152 837.655 108.381 837.595 108.508C837.514 108.681 837.482 108.845 837.464 109.141C837.445 109.52 837.455 109.553 837.605 109.867C837.695 110.059 837.873 110.312 838.027 110.481C838.177 110.636 838.345 110.795 838.4 110.833L838.509 110.898C838.109 112.516 837.863 113.519 837.719 114.108C837.604 114.577 837.553 114.783 837.541 114.827C837.514 114.953 837.373 115.141 837.032 115.506C836.777 115.787 836.455 116.181 836.318 116.387C836.182 116.589 835.977 116.969 835.859 117.227C835.741 117.484 835.591 117.864 835.523 118.07C835.459 118.277 835.364 118.628 835.318 118.858C835.268 119.083 835.209 119.523 835.186 119.842C835.159 120.18 835.159 120.653 835.182 121C835.205 121.323 835.255 121.755 835.295 121.961C835.336 122.167 835.423 122.505 835.486 122.711C835.55 122.917 835.673 123.255 835.755 123.461C835.841 123.667 836.023 124.023 836.155 124.258C836.291 124.492 836.55 124.858 836.736 125.078C836.923 125.298 837.209 125.594 837.373 125.734C837.536 125.875 837.736 126.044 837.814 126.109L837.959 126.227C837.907 126.962 837.866 127.529 837.835 127.963L837.785 128.658L837.745 129.203L837.714 129.555C837.241 130.066 837.055 130.305 836.995 130.422C836.909 130.6 836.891 130.703 836.891 131.055C836.891 131.43 836.905 131.505 837.018 131.734C837.091 131.875 837.25 132.1 837.373 132.227L837.595 132.461C837.445 133.516 837.373 134.003 837.336 134.233L837.273 134.641C836.795 134.983 836.527 135.189 836.364 135.32C836.2 135.456 835.909 135.742 835.709 135.958C835.514 136.173 835.227 136.553 835.068 136.797C834.914 137.041 834.668 137.477 834.532 137.758C834.395 138.039 834.209 138.494 834.114 138.766C834.023 139.037 833.909 139.427 833.864 139.633C833.818 139.839 833.745 140.242 833.7 140.523C833.65 140.875 833.627 141.32 833.627 141.93C833.627 142.516 833.655 142.998 833.705 143.336C833.745 143.617 833.818 144.02 833.868 144.227C833.918 144.433 834.014 144.77 834.077 144.977C834.141 145.183 834.282 145.553 834.386 145.797C834.491 146.041 834.682 146.42 834.809 146.641C834.932 146.861 835.136 147.175 835.255 147.339C835.377 147.508 835.736 147.906 836.059 148.23L836.636 148.82C836.859 150.02 836.909 150.4 836.9 150.438C836.886 150.475 836.718 150.602 836.518 150.714C836.323 150.827 836.055 151 835.932 151.094C835.805 151.188 835.6 151.38 835.477 151.52C835.35 151.661 835.186 151.905 835.105 152.059C835.027 152.209 834.927 152.463 834.891 152.617C834.85 152.772 834.818 153.016 834.818 153.156C834.818 153.297 834.85 153.531 834.891 153.672C834.932 153.812 835.027 154.056 835.105 154.211C835.195 154.389 835.386 154.628 835.623 154.867L835.995 155.242C835.855 156.658 835.777 157.417 835.727 157.844C835.677 158.27 835.609 158.645 835.577 158.683C835.55 158.72 835.377 158.866 835.205 159.006C835.032 159.147 834.736 159.414 834.555 159.597C834.368 159.78 834.1 160.08 833.959 160.258C833.814 160.436 833.559 160.797 833.395 161.055C833.232 161.312 832.964 161.809 832.805 162.156C832.641 162.503 832.432 163.009 832.341 163.281C832.25 163.553 832.127 163.975 832.068 164.219C832.009 164.463 831.918 164.927 831.868 165.25C831.818 165.573 831.768 166.164 831.755 166.562C831.736 166.961 831.745 167.669 831.768 168.133C831.795 168.695 831.85 169.173 831.927 169.562C831.991 169.886 832.114 170.397 832.2 170.702C832.291 171.002 832.427 171.414 832.505 171.616C832.582 171.812 832.755 172.211 832.895 172.492C833.032 172.773 833.273 173.209 833.427 173.453C833.586 173.697 833.859 174.086 834.041 174.32L834.084 174.377C834.242 174.586 834.368 174.753 834.368 174.766C834.364 174.78 834.195 175 833.986 175.258C833.853 175.426 833.506 175.858 833.1 176.364L832.427 177.203C831.777 178.014 830.509 179.598 829.609 180.719C828.709 181.839 827.791 182.988 827.568 183.273C827.383 183.502 827.205 183.731 827.12 183.838C827.1 183.863 827.086 183.882 827.077 183.892L827 184H826.928V72.7273H856.919ZM843.69 101.624C843.804 101.556 843.915 101.487 844 101.43C844.186 101.298 844.491 101.036 844.682 100.839C844.873 100.647 845.141 100.319 845.277 100.112C845.414 99.9109 845.6 99.5734 845.691 99.3672C845.786 99.1609 845.914 98.8141 845.973 98.5938C846.036 98.3734 846.114 97.975 846.141 97.7031C846.182 97.3281 846.182 97.0891 846.141 96.6953C846.114 96.4094 846.036 96.0016 845.973 95.7812C845.914 95.5609 845.786 95.2141 845.691 95.0078C845.6 94.8016 845.414 94.4641 845.277 94.2625C845.141 94.0562 844.877 93.7375 844.695 93.5453C844.518 93.3578 844.209 93.0953 844.014 92.9594C843.823 92.8281 843.5 92.6359 843.3 92.5422C843.1 92.4438 842.75 92.3125 842.527 92.2422C842.462 92.2231 842.382 92.2031 842.294 92.1839C842.383 92.7511 842.511 93.6018 842.632 94.4219C842.714 94.9783 842.837 95.8188 842.973 96.7478L842.977 96.7698C843.133 97.8386 843.307 99.0221 843.455 100.023C843.531 100.543 843.611 101.088 843.69 101.624ZM841.714 92.0861C841.61 92.7379 841.44 93.8519 841.277 94.9609C841.05 96.4797 840.732 98.6453 840.568 99.7656C840.477 100.39 840.343 101.3 840.208 102.219C840.073 102.192 839.943 102.162 839.845 102.133C839.623 102.062 839.273 101.931 839.073 101.833C838.873 101.739 838.559 101.556 838.373 101.43C838.186 101.298 837.877 101.036 837.691 100.839C837.5 100.647 837.232 100.319 837.095 100.112C836.959 99.9109 836.773 99.5734 836.682 99.3672C836.586 99.1609 836.459 98.8141 836.4 98.5938C836.336 98.3734 836.259 97.9656 836.232 97.6797C836.191 97.2859 836.191 97.0469 836.232 96.6719C836.259 96.4 836.336 96.0016 836.4 95.7812C836.459 95.5609 836.586 95.2141 836.682 95.0078C836.773 94.8016 836.959 94.4641 837.095 94.2625C837.232 94.0562 837.5 93.7281 837.691 93.5359C837.877 93.3391 838.186 93.0766 838.373 92.9453C838.559 92.8188 838.873 92.6359 839.073 92.5422C839.273 92.4438 839.623 92.3125 839.845 92.2422C840.068 92.1766 840.441 92.1016 840.664 92.0828C840.886 92.0594 841.091 92.0406 841.114 92.0359C841.136 92.0359 841.373 92.05 841.636 92.0781C841.661 92.0803 841.687 92.083 841.714 92.0861ZM885.203 185.304C879.879 185.304 875.17 184.435 871.077 182.696C867.02 180.921 863.833 178.241 861.514 174.655C859.196 171.069 858.037 166.505 858.037 160.963C858.037 156.399 858.816 152.505 860.373 149.282C861.931 146.022 864.104 143.359 866.893 141.295C869.682 139.23 872.924 137.654 876.619 136.568C880.35 135.481 884.37 134.775 888.681 134.449C893.353 134.087 897.102 133.652 899.927 133.145C902.789 132.602 904.854 131.859 906.121 130.917C907.389 129.939 908.023 128.653 908.023 127.06V126.842C908.023 124.669 907.19 123.003 905.524 121.844C903.857 120.685 901.72 120.105 899.112 120.105C896.251 120.105 893.915 120.739 892.104 122.007C890.329 123.238 889.26 125.14 888.898 127.712H861.297C861.659 122.641 863.271 117.968 866.133 113.694C869.03 109.384 873.25 105.942 878.792 103.371C884.334 100.763 891.252 99.4588 899.547 99.4588C905.524 99.4588 910.884 100.165 915.629 101.578C920.375 102.954 924.413 104.892 927.746 107.391C931.078 109.854 933.613 112.752 935.352 116.085C937.127 119.381 938.014 122.967 938.014 126.842V184H909.979V172.264H909.327C907.661 175.379 905.632 177.897 903.242 179.816C900.887 181.736 898.189 183.131 895.146 184C892.14 184.869 888.826 185.304 885.203 185.304ZM894.983 166.396C897.265 166.396 899.402 165.925 901.394 164.984C903.423 164.042 905.071 162.684 906.339 160.909C907.606 159.134 908.24 156.979 908.24 154.443V147.489C907.443 147.815 906.592 148.123 905.687 148.412C904.817 148.702 903.876 148.974 902.861 149.227C901.883 149.481 900.833 149.716 899.71 149.934C898.623 150.151 897.482 150.35 896.287 150.531C893.969 150.893 892.067 151.491 890.582 152.324C889.133 153.121 888.047 154.117 887.322 155.312C886.634 156.472 886.29 157.776 886.29 159.224C886.29 161.543 887.105 163.317 888.735 164.549C890.365 165.781 892.448 166.396 894.983 166.396ZM965.348 185.304C960.023 185.304 955.314 184.435 951.221 182.696C947.165 180.921 943.977 178.241 941.659 174.655C939.341 171.069 938.182 166.505 938.182 160.963C938.182 156.399 938.96 152.505 940.518 149.282C942.075 146.022 944.249 143.359 947.038 141.295C949.827 139.23 953.069 137.654 956.763 136.568C960.494 135.481 964.515 134.775 968.825 134.449C973.498 134.087 977.247 133.652 980.072 133.145C982.933 132.602 984.998 131.859 986.266 130.917C987.534 129.939 988.167 128.653 988.167 127.06V126.842C988.167 124.669 987.334 123.003 985.668 121.844C984.002 120.685 981.865 120.105 979.257 120.105C976.395 120.105 974.059 120.739 972.248 122.007C970.473 123.238 969.405 125.14 969.042 127.712H941.442C941.804 122.641 943.416 117.968 946.277 113.694C949.175 109.384 953.395 105.942 958.937 103.371C964.478 100.763 971.397 99.4588 979.692 99.4588C985.668 99.4588 991.029 100.165 995.774 101.578C1000.52 102.954 1004.56 104.892 1007.89 107.391C1011.22 109.854 1013.76 112.752 1015.5 116.085C1017.27 119.381 1018.16 122.967 1018.16 126.842V184H990.123V172.264H989.471C987.805 175.379 985.777 177.897 983.386 179.816C981.032 181.736 978.333 183.131 975.291 184C972.284 184.869 968.97 185.304 965.348 185.304ZM975.128 166.396C977.41 166.396 979.547 165.925 981.539 164.984C983.567 164.042 985.215 162.684 986.483 160.909C987.751 159.134 988.385 156.979 988.385 154.443V147.489C987.588 147.815 986.737 148.123 985.831 148.412C984.962 148.702 984.02 148.974 983.006 149.227C982.028 149.481 980.977 149.716 979.855 149.934C978.768 150.151 977.627 150.35 976.432 150.531C974.113 150.893 972.212 151.491 970.727 152.324C969.278 153.121 968.191 154.117 967.467 155.312C966.779 156.472 966.434 157.776 966.434 159.224C966.434 161.543 967.249 163.317 968.879 164.549C970.509 165.781 972.592 166.396 975.128 166.396ZM1098.52 127.712H1070.92C1070.78 126.009 1070.18 124.542 1069.13 123.311C1068.08 122.079 1066.72 121.137 1065.05 120.485C1063.42 119.797 1061.61 119.453 1059.62 119.453C1057.05 119.453 1054.84 119.924 1052.99 120.866C1051.14 121.808 1050.24 123.148 1050.27 124.886C1050.24 126.118 1050.76 127.259 1051.85 128.309C1052.97 129.36 1055.13 130.175 1058.31 130.754L1075.27 133.797C1083.81 135.354 1090.17 137.98 1094.34 141.675C1098.54 145.333 1100.66 150.241 1100.69 156.399C1100.66 162.339 1098.88 167.501 1095.37 171.884C1091.89 176.23 1087.13 179.599 1081.08 181.99C1075.07 184.344 1068.2 185.521 1060.49 185.521C1047.74 185.521 1037.76 182.913 1030.55 177.697C1023.38 172.482 1019.38 165.599 1018.54 157.051H1048.32C1048.72 159.695 1050.02 161.742 1052.23 163.191C1054.48 164.603 1057.3 165.31 1060.71 165.31C1063.46 165.31 1065.72 164.839 1067.5 163.897C1069.31 162.955 1070.23 161.615 1070.27 159.876C1070.23 158.283 1069.43 157.015 1067.88 156.073C1066.36 155.131 1063.97 154.371 1060.71 153.791L1045.93 151.183C1037.41 149.698 1031.04 146.873 1026.8 142.707C1022.56 138.542 1020.46 133.181 1020.5 126.625C1020.46 120.83 1021.98 115.922 1025.06 111.901C1028.18 107.844 1032.62 104.765 1038.37 102.664C1044.17 100.527 1051.03 99.4588 1058.97 99.4588C1071.03 99.4588 1080.54 101.958 1087.49 106.957C1094.48 111.955 1098.16 118.874 1098.52 127.712Z" fill="white"/>
</svg>
